<svg width="85" height="66" viewBox="0 0 85 66" fill="none" xmlns="http://www.w3.org/2000/svg">
<path d="M76.5001 65.5C78.7544 65.5 80.9164 64.7391 82.5104 63.3847C84.1045 62.0302 85 60.1932 85 58.2778V40.6411C85 38.7257 84.1045 36.8887 82.5104 35.5342C80.9164 34.1798 78.7544 33.4189 76.5001 33.4189H64.7024C64.7024 30.8839 64.8808 28.3417 65.2293 25.8067C65.7563 23.12 66.6403 20.7294 67.8643 18.6422C69.0968 16.5478 70.6777 14.9083 72.6157 13.7094C74.5452 12.3661 77.0016 11.6944 79.9936 11.6944V0.5C75.0722 0.5 70.7712 1.39556 67.0738 3.18667C63.4086 4.95962 60.2573 7.40771 57.8515 10.3511C55.4369 13.5962 53.6572 17.1523 52.5816 20.8811C51.4977 24.996 50.9673 29.2023 51.0006 33.4189V58.2778C51.0006 60.1932 51.8961 62.0302 53.4901 63.3847C55.0842 64.7391 57.2461 65.5 59.5004 65.5H76.5001ZM25.501 65.5C27.7553 65.5 29.9173 64.7391 31.5113 63.3847C33.1054 62.0302 34.0009 60.1932 34.0009 58.2778V40.6411C34.0009 38.7257 33.1054 36.8887 31.5113 35.5342C29.9173 34.1798 27.7553 33.4189 25.501 33.4189H13.7032C13.7032 30.8839 13.8817 28.3417 14.2302 25.8067C14.7572 23.12 15.6412 20.7294 16.8652 18.6422C18.0977 16.5478 19.6786 14.9083 21.6166 13.7094C23.5461 12.3661 26.0025 11.6944 28.9945 11.6944V0.5C24.0731 0.5 19.7721 1.39556 16.0747 3.18667C12.4094 4.95962 9.25817 7.40771 6.85235 10.3511C4.43776 13.5962 2.65805 17.1523 1.58245 20.8811C0.498596 24.996 -0.0317943 29.2023 0.00147284 33.4189V58.2778C0.00147284 60.1932 0.89699 62.0302 2.49102 63.3847C4.08505 64.7391 6.24702 65.5 8.50133 65.5H25.501Z" fill="#e2f8e1a1"/>
</svg>
