<svg width="48" height="48" viewBox="0 0 48 48" fill="none" xmlns="http://www.w3.org/2000/svg">
<g clip-path="url(#clip0_48_151)">
<path d="M16.9676 35.2258C20.9315 38.1307 25.8461 39.4317 30.7281 38.8687C35.6102 38.3057 40.0996 35.92 43.2982 32.1891C46.4968 28.4581 48.1688 23.657 47.9795 18.7463C47.7903 13.8356 45.7539 9.17735 42.2777 5.7036C38.8014 2.22985 34.1417 0.196746 29.2309 0.0110404C24.32 -0.174665 19.5201 1.50072 15.7914 4.70202C12.0628 7.90331 9.68037 12.3944 9.12082 17.2768C8.56127 22.1593 9.86586 27.0729 12.7736 31.0348V31.0318C12.6536 31.1218 12.5396 31.2178 12.4286 31.3258L0.878582 42.8758C0.31566 43.4383 -0.000743904 44.2014 -0.0010252 44.9972C-0.0013065 45.793 0.314556 46.5564 0.87708 47.1193C1.4396 47.6822 2.20271 47.9986 2.99852 47.9989C3.79433 47.9992 4.55766 47.6833 5.12058 47.1208L16.6706 35.5708C16.7792 35.4635 16.8764 35.3482 16.9676 35.2258ZM28.4996 35.9998C26.3328 35.9998 24.1872 35.573 22.1853 34.7438C20.1834 33.9146 18.3645 32.6992 16.8323 31.1671C15.3002 29.6349 14.0848 27.8159 13.2556 25.8141C12.4264 23.8122 11.9996 21.6666 11.9996 19.4998C11.9996 17.333 12.4264 15.1874 13.2556 13.1855C14.0848 11.1836 15.3002 9.3647 16.8323 7.83253C18.3645 6.30037 20.1834 5.08498 22.1853 4.25578C24.1872 3.42658 26.3328 2.99979 28.4996 2.99979C32.8756 2.99979 37.0725 4.73818 40.1668 7.83253C43.2612 10.9269 44.9996 15.1237 44.9996 19.4998C44.9996 23.8759 43.2612 28.0727 40.1668 31.1671C37.0725 34.2614 32.8756 35.9998 28.4996 35.9998Z" fill="#fff"/>
</g>
<defs>
<clipPath id="clip0_48_151">
<rect width="48" height="48" fill="white" transform="matrix(0 1 -1 0 48 0)"/>
</clipPath>
</defs>
</svg>
